<svg version="1.1" id="Layer_1" xmlns="http://www.w3.org/2000/svg" xmlns:xlink="http://www.w3.org/1999/xlink" x="0px" y="0px"
	 width="100%" viewBox="0 0 512 512" enable-background="new 0 0 512 512" xml:space="preserve">
<path fill="#FCA5A5" opacity="1.000000" stroke="none" 
	d="
M329.000000,513.000000 
	C219.359970,513.000000 110.219933,513.000000 1.039949,513.000000 
	C1.039949,342.401611 1.039949,171.803207 1.039949,1.102403 
	C171.556702,1.102403 342.113495,1.102403 512.835144,1.102403 
	C512.835144,171.666534 512.835144,342.333252 512.835144,513.000000 
	C451.803192,513.000000 390.651581,513.000000 329.000000,513.000000 
M394.395630,235.386322 
	C393.920685,234.922882 393.445740,234.459442 392.731018,233.368149 
	C377.138733,211.001678 354.991364,198.135696 329.877960,189.100632 
	C334.352448,177.002792 331.102325,166.903732 321.689484,158.609848 
	C313.041992,150.990326 311.370087,140.614059 317.472290,130.912857 
	C318.437225,129.378830 319.201233,127.718430 320.231384,125.792595 
	C312.400360,125.462334 305.552002,138.657532 306.369141,147.170074 
	C307.158112,155.389465 311.062408,161.876144 317.068420,167.367310 
	C323.095337,172.877579 324.249451,179.749588 321.227295,187.278976 
	C304.423370,184.498062 287.619415,181.717148 271.155334,178.334351 
	C276.395752,174.365524 280.940186,170.032104 281.513885,162.833160 
	C282.021393,156.464630 279.329498,150.658844 274.438202,148.660019 
	C274.338379,148.964233 274.117706,149.288025 274.163208,149.568680 
	C274.267181,150.210052 274.477753,150.838211 274.686127,151.457932 
	C277.502716,159.834732 276.151062,167.000168 268.999146,172.824677 
	C267.015259,174.440338 265.716858,176.897705 263.153473,178.986923 
	C240.682999,178.203476 218.583954,180.900497 196.841110,185.132812 
	C198.288437,174.700226 195.712479,165.860260 187.379471,158.789780 
	C178.058136,150.880722 176.929153,139.536255 183.941055,129.444138 
	C184.609573,128.481964 185.138046,127.422493 185.731522,126.408188 
	C185.416443,126.042747 185.101379,125.677299 184.786301,125.311852 
	C183.200851,126.141487 181.413391,126.725945 180.061951,127.839569 
	C169.264664,136.736801 169.057755,154.202484 180.181396,164.466034 
	C187.767517,171.465607 190.205032,179.351486 186.825302,189.243362 
	C182.295517,190.849503 177.677002,192.243851 173.251022,194.097794 
	C152.069489,202.970245 132.998123,214.585922 120.496643,235.257156 
	C120.237358,235.466522 120.053192,235.728653 120.013718,236.039886 
	C120.013718,236.039886 120.020393,235.970535 119.428040,236.288193 
	C114.230225,241.634949 108.656357,246.111572 100.596588,246.236511 
	C98.589676,246.267624 96.433411,247.371460 94.637108,248.462036 
	C85.955582,253.732788 82.246201,264.213531 84.858627,275.551239 
	C87.255219,285.952301 93.779411,291.493652 104.770668,292.543365 
	C106.744690,292.731903 108.762817,292.927612 110.646652,293.496979 
	C115.010551,294.815887 117.652893,297.378021 118.851662,302.262543 
	C121.807335,314.306000 124.602631,326.519012 129.085587,338.031830 
	C140.441666,367.195709 161.175018,387.548462 190.100006,399.558563 
	C208.467773,407.185150 227.724045,410.508545 247.458954,411.376831 
	C273.359283,412.516388 298.956970,410.704712 323.636261,402.039764 
	C348.397339,393.346130 367.758911,378.089203 380.533417,354.781372 
	C389.388672,338.624420 393.775085,321.186249 396.464325,303.181366 
	C397.451477,296.572174 400.311951,293.706635 406.986237,292.854095 
	C408.304688,292.685699 409.620209,292.392303 410.941528,292.364105 
	C421.940643,292.129303 428.559662,284.439484 430.664948,273.928711 
	C433.288330,260.831238 425.827576,247.721375 414.212524,246.296265 
	C407.296539,245.447708 402.067047,242.383804 397.202240,237.936768 
	C396.291107,237.103867 395.124298,236.550674 394.022736,235.948380 
	C394.022736,235.948380 394.102264,236.001801 394.395630,235.386322 
M225.794449,156.629593 
	C231.363724,163.301712 237.604828,165.940125 242.844330,163.440170 
	C242.286438,163.085205 241.891327,162.775909 241.450104,162.561554 
	C230.992538,157.480957 227.197235,151.651108 227.930557,141.771652 
	C228.601822,132.728180 233.256653,127.933937 244.547745,124.656845 
	C257.409027,120.924011 262.207520,105.926460 253.908279,95.400658 
	C250.223846,90.727745 246.356674,89.283737 241.204681,91.057930 
	C241.840012,91.433235 242.235321,91.690567 242.651154,91.908821 
	C249.195465,95.343689 252.445129,100.313530 251.775665,105.874092 
	C250.949738,112.734192 247.805893,115.930046 239.882935,117.963638 
	C222.264954,122.485641 215.465729,140.302826 225.794449,156.629593 
z"/>
<path fill="#2C3C48" opacity="1.000000" stroke="none" 
	d="
M394.075470,235.868408 
	C395.124298,236.550674 396.291107,237.103867 397.202240,237.936768 
	C402.067047,242.383804 407.296539,245.447708 414.212524,246.296265 
	C425.827576,247.721375 433.288330,260.831238 430.664948,273.928711 
	C428.559662,284.439484 421.940643,292.129303 410.941528,292.364105 
	C409.620209,292.392303 408.304688,292.685699 406.986237,292.854095 
	C400.311951,293.706635 397.451477,296.572174 396.464325,303.181366 
	C393.775085,321.186249 389.388672,338.624420 380.533417,354.781372 
	C367.758911,378.089203 348.397339,393.346130 323.636261,402.039764 
	C298.956970,410.704712 273.359283,412.516388 247.458954,411.376831 
	C227.724045,410.508545 208.467773,407.185150 190.100006,399.558563 
	C161.175018,387.548462 140.441666,367.195709 129.085587,338.031830 
	C124.602631,326.519012 121.807335,314.306000 118.851662,302.262543 
	C117.652893,297.378021 115.010551,294.815887 110.646652,293.496979 
	C108.762817,292.927612 106.744690,292.731903 104.770668,292.543365 
	C93.779411,291.493652 87.255219,285.952301 84.858627,275.551239 
	C82.246201,264.213531 85.955582,253.732788 94.637108,248.462036 
	C96.433411,247.371460 98.589676,246.267624 100.596588,246.236511 
	C108.656357,246.111572 114.230225,241.634949 119.702759,236.516693 
	C113.841667,251.706223 113.469315,266.558899 121.591866,280.892303 
	C128.479172,293.045959 138.689026,302.054993 150.463074,309.330261 
	C178.364807,326.570984 209.311722,333.841583 241.541901,335.814453 
	C269.418396,337.520844 297.081848,335.187836 323.997070,327.023346 
	C345.584351,320.475037 365.805237,311.268799 381.809692,294.821808 
	C393.804932,282.494873 400.972656,268.052673 397.989594,250.229202 
	C397.174713,245.360291 395.406311,240.650970 394.075470,235.868408 
z"/>
<path fill="#5B7C91" opacity="1.000000" stroke="none" 
	d="
M394.049103,235.908386 
	C395.406311,240.650970 397.174713,245.360291 397.989594,250.229202 
	C400.972656,268.052673 393.804932,282.494873 381.809692,294.821808 
	C365.805237,311.268799 345.584351,320.475037 323.997070,327.023346 
	C297.081848,335.187836 269.418396,337.520844 241.541901,335.814453 
	C209.311722,333.841583 178.364807,326.570984 150.463074,309.330261 
	C138.689026,302.054993 128.479172,293.045959 121.591866,280.892303 
	C113.469315,266.558899 113.841667,251.706223 119.998932,236.357880 
	C120.020393,235.970535 120.013718,236.039886 120.149902,235.890533 
	C120.531029,235.560883 120.757828,235.360107 120.966484,235.138840 
	C132.998123,214.585922 152.069489,202.970245 173.251022,194.097794 
	C177.677002,192.243851 182.295517,190.849503 187.057983,189.482849 
	C185.920425,192.603897 184.550201,195.485443 183.179977,198.367004 
	C183.428925,198.711716 183.677856,199.056412 183.926788,199.401108 
	C185.546906,198.652130 187.653519,198.312637 188.694305,197.076065 
	C191.614517,193.606567 194.095123,189.767059 196.749146,186.073502 
	C218.583954,180.900497 240.682999,178.203476 263.638214,179.425629 
	C263.401642,187.841827 265.206482,191.881683 270.526459,193.482330 
	C268.430542,188.470825 265.655273,183.522598 270.815491,178.936234 
	C287.619415,181.717148 304.423370,184.498062 321.644592,187.686401 
	C320.677765,191.601456 319.293671,195.109100 317.806915,198.876984 
	C323.142792,198.061966 323.668213,197.646454 329.675751,189.861496 
	C354.991364,198.135696 377.138733,211.001678 392.927734,233.972534 
	C393.450378,235.051880 393.776306,235.526840 394.102264,236.001801 
	C394.102264,236.001801 394.022736,235.948380 394.049103,235.908386 
M205.569839,210.259659 
	C199.192932,212.186539 192.816040,214.113419 186.474014,215.948074 
	C186.474014,215.948074 186.567902,215.978241 185.777863,216.191055 
	C183.383804,216.927750 180.989746,217.664444 177.761536,218.349594 
	C173.733475,217.347687 170.421890,217.569595 170.418518,223.852524 
	C167.336533,222.322830 165.019897,220.791504 162.473190,220.043884 
	C160.791611,219.550247 158.610107,219.803604 157.007675,220.518616 
	C156.452530,220.766327 156.866226,223.421768 157.027252,224.957550 
	C157.140579,226.038406 157.574707,227.085632 157.920914,228.349945 
	C156.821259,228.631897 156.033173,228.791626 155.272232,229.035889 
	C150.273392,230.640579 145.083984,231.838760 140.353149,234.026703 
	C137.087219,235.537170 137.483490,238.131622 140.699249,239.848892 
	C141.712906,240.390213 142.857773,240.685806 143.620148,241.673309 
	C143.120255,242.338196 142.627213,243.008377 142.119446,243.667206 
	C128.774734,260.982391 129.481064,277.732056 144.115936,294.123932 
	C153.896011,305.078125 166.404358,311.802429 179.718353,317.218079 
	C199.331696,325.196075 219.867889,329.009583 240.929916,330.380524 
	C272.507843,332.435944 303.368103,329.159882 333.081726,317.812805 
	C347.685425,312.235870 361.113708,304.686279 371.463715,292.560333 
	C385.194000,276.474060 384.624878,256.610657 369.966553,241.280167 
	C356.702179,227.407547 340.079803,219.050629 321.952972,214.153702 
	C307.556549,210.264511 292.652344,208.254776 278.391357,204.961411 
	C278.905914,204.540314 279.593658,204.219177 279.904541,203.680527 
	C281.139587,201.540436 282.256989,199.332428 283.417969,197.149582 
	C280.841217,196.710037 278.152527,195.585526 275.712830,195.984360 
	C271.598541,196.656967 267.642151,198.295349 263.179718,199.662231 
	C263.427185,198.243790 263.824738,197.271103 263.708679,196.364151 
	C263.450165,194.344482 262.934845,192.357681 262.524200,190.357483 
	C260.456726,191.053268 258.070801,191.318039 256.400848,192.551865 
	C254.220200,194.162994 252.606369,196.541306 250.656235,198.691452 
	C247.631851,191.739304 245.832001,191.437088 240.692871,196.997528 
	C238.612335,199.248642 236.871017,201.813293 234.829483,204.421600 
	C233.271576,197.275497 231.318787,196.577347 225.632477,200.781494 
	C224.237701,201.812714 222.843689,202.844940 221.420670,203.897919 
	C218.494049,199.207367 216.533463,198.780121 213.068298,202.163010 
	C210.601028,204.571732 208.584305,207.441956 205.569839,210.259659 
z"/>
<path fill="#D8F0F3" opacity="1.000000" stroke="none" 
	d="
M225.570419,156.342941 
	C215.465729,140.302826 222.264954,122.485641 239.882935,117.963638 
	C247.805893,115.930046 250.949738,112.734192 251.775665,105.874092 
	C252.445129,100.313530 249.195465,95.343689 242.651154,91.908821 
	C242.235321,91.690567 241.840012,91.433235 241.204681,91.057930 
	C246.356674,89.283737 250.223846,90.727745 253.908279,95.400658 
	C262.207520,105.926460 257.409027,120.924011 244.547745,124.656845 
	C233.256653,127.933937 228.601822,132.728180 227.930557,141.771652 
	C227.197235,151.651108 230.992538,157.480957 241.450104,162.561554 
	C241.891327,162.775909 242.286438,163.085205 242.844330,163.440170 
	C237.604828,165.940125 231.363724,163.301712 225.570419,156.342941 
z"/>
<path fill="#D8F0F3" opacity="1.000000" stroke="none" 
	d="
M329.776855,189.481064 
	C323.668213,197.646454 323.142792,198.061966 317.806915,198.876984 
	C319.293671,195.109100 320.677765,191.601456 322.046448,187.738068 
	C324.249451,179.749588 323.095337,172.877579 317.068420,167.367310 
	C311.062408,161.876144 307.158112,155.389465 306.369141,147.170074 
	C305.552002,138.657532 312.400360,125.462334 320.231384,125.792595 
	C319.201233,127.718430 318.437225,129.378830 317.472290,130.912857 
	C311.370087,140.614059 313.041992,150.990326 321.689484,158.609848 
	C331.102325,166.903732 334.352448,177.002792 329.776855,189.481064 
z"/>
<path fill="#D8F0F3" opacity="1.000000" stroke="none" 
	d="
M196.795120,185.603149 
	C194.095123,189.767059 191.614517,193.606567 188.694305,197.076065 
	C187.653519,198.312637 185.546906,198.652130 183.926788,199.401108 
	C183.677856,199.056412 183.428925,198.711716 183.179977,198.367004 
	C184.550201,195.485443 185.920425,192.603897 187.393768,189.406158 
	C190.205032,179.351486 187.767517,171.465607 180.181396,164.466034 
	C169.057755,154.202484 169.264664,136.736801 180.061951,127.839569 
	C181.413391,126.725945 183.200851,126.141487 184.786301,125.311852 
	C185.101379,125.677299 185.416443,126.042747 185.731522,126.408188 
	C185.138046,127.422493 184.609573,128.481964 183.941055,129.444138 
	C176.929153,139.536255 178.058136,150.880722 187.379471,158.789780 
	C195.712479,165.860260 198.288437,174.700226 196.795120,185.603149 
z"/>
<path fill="#D8F0F3" opacity="1.000000" stroke="none" 
	d="
M270.985413,178.635284 
	C265.655273,183.522598 268.430542,188.470825 270.526459,193.482330 
	C265.206482,191.881683 263.401642,187.841827 264.113464,179.416626 
	C265.716858,176.897705 267.015259,174.440338 268.999146,172.824677 
	C276.151062,167.000168 277.502716,159.834732 274.686127,151.457932 
	C274.477753,150.838211 274.267181,150.210052 274.163208,149.568680 
	C274.117706,149.288025 274.338379,148.964233 274.445007,148.662262 
	C279.329498,150.658844 282.021393,156.464630 281.513885,162.833160 
	C280.940186,170.032104 276.395752,174.365524 270.985413,178.635284 
z"/>
<path fill="#2C3C48" opacity="1.000000" stroke="none" 
	d="
M394.248962,235.694061 
	C393.776306,235.526840 393.450378,235.051880 393.047607,234.286469 
	C393.445740,234.459442 393.920685,234.922882 394.248962,235.694061 
z"/>
<path fill="#2C3C48" opacity="1.000000" stroke="none" 
	d="
M120.731567,235.197998 
	C120.757828,235.360107 120.531029,235.560883 120.115120,235.892365 
	C120.053192,235.728653 120.237358,235.466522 120.731567,235.197998 
z"/>
<path fill="#F8E6BF" opacity="1.000000" stroke="none" 
	d="
M277.973602,205.410583 
	C292.652344,208.254776 307.556549,210.264511 321.952972,214.153702 
	C340.079803,219.050629 356.702179,227.407547 369.966553,241.280167 
	C384.624878,256.610657 385.194000,276.474060 371.463715,292.560333 
	C361.113708,304.686279 347.685425,312.235870 333.081726,317.812805 
	C303.368103,329.159882 272.507843,332.435944 240.929916,330.380524 
	C219.867889,329.009583 199.331696,325.196075 179.718353,317.218079 
	C166.404358,311.802429 153.896011,305.078125 144.115936,294.123932 
	C129.481064,277.732056 128.774734,260.982391 142.119446,243.667206 
	C142.627213,243.008377 143.120255,242.338196 144.252411,241.350494 
	C149.129578,241.027664 153.374466,241.027664 158.160553,241.027664 
	C157.287933,242.832733 156.393448,244.079391 156.094604,245.455399 
	C155.728882,247.139435 155.862213,248.931854 155.779739,250.677399 
	C157.662659,250.716339 159.657242,251.163681 161.399323,250.687439 
	C163.427475,250.133011 165.234634,248.770218 167.091385,248.136795 
	C165.800720,250.654434 164.395172,252.717285 163.341339,254.946396 
	C159.748932,262.545258 155.445831,269.943024 152.969345,277.901520 
	C149.642899,288.591309 155.651733,295.668274 166.778778,296.138641 
	C175.870438,296.522949 184.613541,295.142395 193.103577,292.395172 
	C192.826294,294.806213 192.558716,296.779541 192.270691,298.749878 
	C191.054779,307.067993 194.609772,316.393127 201.004791,318.302612 
	C217.258270,323.155670 233.743240,328.311249 250.321991,318.123169 
	C258.055725,319.195221 265.454407,320.905457 272.822754,320.783569 
	C287.001099,320.548950 293.610077,311.053558 289.009613,298.023346 
	C287.267639,293.089386 284.546906,288.342468 281.484009,284.076233 
	C278.144226,279.424347 273.890076,275.428955 270.449707,271.061096 
	C279.759796,268.999664 287.954407,271.222870 295.997772,274.904144 
	C297.378937,275.536316 299.622467,275.529968 300.853363,274.792847 
	C301.632355,274.326324 301.938293,271.563690 301.312653,270.509979 
	C298.029877,264.981079 294.878571,259.250458 290.761414,254.365433 
	C281.135010,242.943680 268.519104,237.840363 253.582611,238.931763 
	C248.050858,239.335968 245.101700,244.237000 247.524902,248.904572 
	C249.414810,252.544922 252.814713,252.818558 256.567230,252.258514 
	C266.798553,250.731476 275.865479,253.251450 283.684601,260.287933 
	C283.339172,260.605896 283.239075,260.770538 283.157959,260.761658 
	C282.175232,260.654022 281.195679,260.517975 280.214600,260.394653 
	C269.058472,258.992523 258.371796,259.814484 248.724182,267.134583 
	C244.619675,271.217621 240.816391,275.147919 236.695938,278.948792 
	C231.933517,275.871674 227.488266,272.923981 223.052673,269.540161 
	C223.857178,262.823914 221.273514,258.018921 216.606567,254.059799 
	C215.520569,253.138535 214.671371,251.938095 213.889374,250.571442 
	C215.669846,248.847107 217.272888,247.416016 218.878830,245.988159 
	C220.686462,244.380981 222.266525,241.873016 224.349442,241.342514 
	C230.335999,239.817764 237.712601,241.697235 240.662415,233.720261 
	C246.175354,232.579941 244.578125,229.643402 242.674103,226.355835 
	C243.017227,225.985214 243.153198,225.835800 243.680359,225.657837 
	C246.660675,226.182587 249.239685,227.097656 251.842270,227.170593 
	C253.798019,227.225403 255.784073,226.198746 257.756653,225.653564 
	C257.191986,224.007217 256.627350,222.360855 256.380066,220.462891 
	C256.899597,220.032242 257.101715,219.853195 257.711914,219.652130 
	C262.546051,220.426346 267.014160,222.749832 272.002899,219.041519 
	C270.499420,216.602936 269.082428,214.304611 267.549713,211.818542 
	C270.966919,209.717865 274.470245,207.564240 277.973602,205.410583 
M322.948730,281.953400 
	C316.098480,281.850311 309.321716,281.862640 303.326263,286.083374 
	C296.474426,290.907104 295.547180,298.846405 301.321136,304.867737 
	C309.158966,313.041382 329.176514,313.233521 337.180206,305.211914 
	C341.517761,300.864655 342.492157,295.191071 338.659790,290.314880 
	C336.032379,286.971863 332.110626,284.646027 330.398468,283.222015 
	C335.375610,282.000427 342.617310,281.357147 348.779205,278.436005 
	C357.316010,274.389038 357.908661,265.230225 351.131134,258.652100 
	C343.417267,251.165176 325.281158,251.131073 316.881104,258.587738 
	C309.959930,264.731598 310.985229,274.060242 319.113892,278.991608 
	C320.601959,279.894348 322.058167,280.849640 322.948730,281.953400 
M328.840485,223.597290 
	C318.571747,217.323120 308.037476,217.150787 297.565796,222.783859 
	C288.993927,227.394943 288.159332,237.409683 295.848297,243.445007 
	C303.971954,249.821579 313.390900,249.240723 322.494476,246.554855 
	C334.589691,242.986328 337.138275,233.898972 328.840485,223.597290 
z"/>
<path fill="#2CBA36" opacity="1.000000" stroke="none" 
	d="
M167.137695,247.758209 
	C165.234634,248.770218 163.427475,250.133011 161.399323,250.687439 
	C159.657242,251.163681 157.662659,250.716339 155.779739,250.677399 
	C155.862213,248.931854 155.728882,247.139435 156.094604,245.455399 
	C156.393448,244.079391 157.287933,242.832733 158.160553,241.027664 
	C153.374466,241.027664 149.129578,241.027664 144.413635,241.060760 
	C142.857773,240.685806 141.712906,240.390213 140.699249,239.848892 
	C137.483490,238.131622 137.087219,235.537170 140.353149,234.026703 
	C145.083984,231.838760 150.273392,230.640579 155.272232,229.035889 
	C156.033173,228.791626 156.821259,228.631897 157.920914,228.349945 
	C157.574707,227.085632 157.140579,226.038406 157.027252,224.957550 
	C156.866226,223.421768 156.452530,220.766327 157.007675,220.518616 
	C158.610107,219.803604 160.791611,219.550247 162.473190,220.043884 
	C165.019897,220.791504 167.336533,222.322830 170.418518,223.852524 
	C170.421890,217.569595 173.733475,217.347687 178.398529,218.619171 
	C181.183121,220.498672 183.330704,222.108582 185.687775,223.875504 
	C186.015945,220.930847 186.291916,218.454544 186.567902,215.978241 
	C186.567902,215.978241 186.474014,215.948074 186.839996,216.141937 
	C191.672256,217.881668 196.138535,219.427551 200.014664,220.769165 
	C200.906677,218.656235 201.466293,216.763092 202.458267,215.133072 
	C203.554459,213.331757 205.046738,211.771484 206.366516,210.106232 
	C208.584305,207.441956 210.601028,204.571732 213.068298,202.163010 
	C216.533463,198.780121 218.494049,199.207367 221.420670,203.897919 
	C222.843689,202.844940 224.237701,201.812714 225.632477,200.781494 
	C231.318787,196.577347 233.271576,197.275497 234.829483,204.421600 
	C236.871017,201.813293 238.612335,199.248642 240.692871,196.997528 
	C245.832001,191.437088 247.631851,191.739304 250.656235,198.691452 
	C252.606369,196.541306 254.220200,194.162994 256.400848,192.551865 
	C258.070801,191.318039 260.456726,191.053268 262.524200,190.357483 
	C262.934845,192.357681 263.450165,194.344482 263.708679,196.364151 
	C263.824738,197.271103 263.427185,198.243790 263.179718,199.662231 
	C267.642151,198.295349 271.598541,196.656967 275.712830,195.984360 
	C278.152527,195.585526 280.841217,196.710037 283.417969,197.149582 
	C282.256989,199.332428 281.139587,201.540436 279.904541,203.680527 
	C279.593658,204.219177 278.905914,204.540314 278.182495,205.186005 
	C274.470245,207.564240 270.966919,209.717865 267.549713,211.818542 
	C269.082428,214.304611 270.499420,216.602936 272.002899,219.041519 
	C267.014160,222.749832 262.546051,220.426346 257.482574,219.414917 
	C256.258911,219.207672 255.672668,219.215637 255.086426,219.223618 
	C255.411850,219.720581 255.737274,220.217545 256.062683,220.714508 
	C256.627350,222.360855 257.191986,224.007217 257.756653,225.653564 
	C255.784073,226.198746 253.798019,227.225403 251.842270,227.170593 
	C249.239685,227.097656 246.660675,226.182587 243.467148,225.420258 
	C242.319672,225.127670 241.776611,225.044098 240.293671,224.815903 
	C241.530502,225.818161 241.998749,226.197586 242.466980,226.577026 
	C244.578125,229.643402 246.175354,232.579941 240.662415,233.720261 
	C237.712601,241.697235 230.335999,239.817764 224.349442,241.342514 
	C222.266525,241.873016 220.686462,244.380981 218.878830,245.988159 
	C217.272888,247.416016 215.669846,248.847107 213.538788,250.575470 
	C205.039017,248.364700 197.213104,244.791550 189.049149,243.662399 
	C181.742737,242.651886 173.620560,242.129852 167.137695,247.758209 
z"/>
<path fill="#F8E6BF" opacity="1.000000" stroke="none" 
	d="
M205.968170,210.182953 
	C205.046738,211.771484 203.554459,213.331757 202.458267,215.133072 
	C201.466293,216.763092 200.906677,218.656235 200.014664,220.769165 
	C196.138535,219.427551 191.672256,217.881668 186.822556,216.188049 
	C192.816040,214.113419 199.192932,212.186539 205.968170,210.182953 
z"/>
<path fill="#F8E6BF" opacity="1.000000" stroke="none" 
	d="
M186.172882,216.084656 
	C186.291916,218.454544 186.015945,220.930847 185.687775,223.875504 
	C183.330704,222.108582 181.183121,220.498672 178.815613,218.644943 
	C180.989746,217.664444 183.383804,216.927750 186.172882,216.084656 
z"/>
<path fill="#E1AF8D" opacity="1.000000" stroke="none" 
	d="
M167.091385,248.136780 
	C173.620560,242.129852 181.742737,242.651886 189.049149,243.662399 
	C197.213104,244.791550 205.039017,248.364700 213.362640,250.870163 
	C214.671371,251.938095 215.520569,253.138535 216.606567,254.059799 
	C221.273514,258.018921 223.857178,262.823914 222.646790,269.479370 
	C215.007614,267.676300 208.434402,269.421051 203.815765,274.977783 
	C199.574844,280.080078 196.623428,286.254181 193.103897,291.956085 
	C184.613541,295.142395 175.870438,296.522949 166.778778,296.138641 
	C155.651733,295.668274 149.642899,288.591309 152.969345,277.901520 
	C155.445831,269.943024 159.748932,262.545258 163.341339,254.946396 
	C164.395172,252.717285 165.800720,250.654434 167.091385,248.136780 
z"/>
<path fill="#D19979" opacity="1.000000" stroke="none" 
	d="
M193.103577,292.395172 
	C196.623428,286.254181 199.574844,280.080078 203.815765,274.977783 
	C208.434402,269.421051 215.007614,267.676300 222.637161,269.915527 
	C227.488266,272.923981 231.933517,275.871674 236.859283,279.232239 
	C246.970001,290.619965 255.614822,301.919922 249.973236,317.933716 
	C233.743240,328.311249 217.258270,323.155670 201.004791,318.302612 
	C194.609772,316.393127 191.054779,307.067993 192.270691,298.749878 
	C192.558716,296.779541 192.826294,294.806213 193.103577,292.395172 
z"/>
<path fill="#F9F9F6" opacity="1.000000" stroke="none" 
	d="
M323.238892,281.867065 
	C322.058167,280.849640 320.601959,279.894348 319.113892,278.991608 
	C310.985229,274.060242 309.959930,264.731598 316.881104,258.587738 
	C325.281158,251.131073 343.417267,251.165176 351.131134,258.652100 
	C357.908661,265.230225 357.316010,274.389038 348.779205,278.436005 
	C342.617310,281.357147 335.375610,282.000427 330.398468,283.222015 
	C332.110626,284.646027 336.032379,286.971863 338.659790,290.314880 
	C342.492157,295.191071 341.517761,300.864655 337.180206,305.211914 
	C329.176514,313.233521 309.158966,313.041382 301.321136,304.867737 
	C295.547180,298.846405 296.474426,290.907104 303.326263,286.083374 
	C309.321716,281.862640 316.098480,281.850311 323.238892,281.867065 
z"/>
<path fill="#E2AF8D" opacity="1.000000" stroke="none" 
	d="
M250.321991,318.123169 
	C255.614822,301.919922 246.970001,290.619965 237.176468,279.361694 
	C240.816391,275.147919 244.619675,271.217621 249.185272,267.162262 
	C257.213776,265.618988 263.756439,267.736664 270.034515,271.147369 
	C273.890076,275.428955 278.144226,279.424347 281.484009,284.076233 
	C284.546906,288.342468 287.267639,293.089386 289.009613,298.023346 
	C293.610077,311.053558 287.001099,320.548950 272.822754,320.783569 
	C265.454407,320.905457 258.055725,319.195221 250.321991,318.123169 
z"/>
<path fill="#F9F9F6" opacity="1.000000" stroke="none" 
	d="
M329.124878,223.834946 
	C337.138275,233.898972 334.589691,242.986328 322.494476,246.554855 
	C313.390900,249.240723 303.971954,249.821579 295.848297,243.445007 
	C288.159332,237.409683 288.993927,227.394943 297.565796,222.783859 
	C308.037476,217.150787 318.571747,217.323120 329.124878,223.834946 
z"/>
<path fill="#FF4C42" opacity="1.000000" stroke="none" 
	d="
M270.449707,271.061096 
	C263.756439,267.736664 257.213776,265.618988 249.486511,267.009521 
	C258.371796,259.814484 269.058472,258.992523 280.214600,260.394653 
	C281.195679,260.517975 282.175232,260.654022 283.157959,260.761658 
	C283.239075,260.770538 283.339172,260.605896 283.684601,260.287933 
	C275.865479,253.251450 266.798553,250.731476 256.567230,252.258514 
	C252.814713,252.818558 249.414810,252.544922 247.524902,248.904572 
	C245.101700,244.237000 248.050858,239.335968 253.582611,238.931763 
	C268.519104,237.840363 281.135010,242.943680 290.761414,254.365433 
	C294.878571,259.250458 298.029877,264.981079 301.312653,270.509979 
	C301.938293,271.563690 301.632355,274.326324 300.853363,274.792847 
	C299.622467,275.529968 297.378937,275.536316 295.997772,274.904144 
	C287.954407,271.222870 279.759796,268.999664 270.449707,271.061096 
z"/>
<path fill="#F8E6BF" opacity="1.000000" stroke="none" 
	d="
M256.380066,220.462891 
	C255.737274,220.217545 255.411850,219.720581 255.086426,219.223618 
	C255.672668,219.215637 256.258911,219.207672 257.074463,219.436920 
	C257.101715,219.853195 256.899597,220.032242 256.380066,220.462891 
z"/>
<path fill="#F8E6BF" opacity="1.000000" stroke="none" 
	d="
M242.674103,226.355835 
	C241.998749,226.197586 241.530502,225.818161 240.293671,224.815903 
	C241.776611,225.044098 242.319672,225.127670 243.075958,225.448807 
	C243.153198,225.835800 243.017227,225.985214 242.674103,226.355835 
z"/>
</svg>